<?xml version="1.0" encoding="windows-1252"?>
<!-- Generator: Adobe Illustrator 19.1.1, SVG Export Plug-In . SVG Version: 6.00 Build 0)  -->
<svg version="1.1" xmlns="http://www.w3.org/2000/svg" xmlns:xlink="http://www.w3.org/1999/xlink" x="0px" y="0px" viewBox="0 0 48 48" style="enable-background:new 0 0 48 48;" xml:space="preserve">
<g>
	<g>
		<path style="fill:#8BC34A;" d="M23.88,43c-0.749,0-1.499-0.044-2.231-0.13l0.468-3.973C22.694,38.966,23.287,39,23.88,39V43z"/>
	</g>
</g>
<path style="fill:#8BC34A;" d="M15.85,36.67l-2.14,3.38c1.19,0.76,2.47,1.38,3.81,1.86l1.34-3.77  C17.81,37.77,16.8,37.27,15.85,36.67z"/>
<path style="fill:#8BC34A;" d="M13.24,34.58l-2.83,2.82c-1-1.01-1.89-2.12-2.64-3.32l3.39-2.12C11.75,32.9,12.45,33.78,13.24,34.58z  "/>
<path style="fill:#9CCC65;" d="M9.71,28.94l-3.77,1.32C5.47,28.92,5.15,27.53,5,26.13l3.97-0.45C9.1,26.79,9.35,27.89,9.71,28.94z"/>
<path style="fill:#AED581;" d="M9.71,19.07c-0.37,1.05-0.62,2.15-0.74,3.26L5,21.89c0.15-1.41,0.47-2.8,0.93-4.13L9.71,19.07z"/>
<path style="fill:#C5E1A5;" d="M13.23,13.43c-0.79,0.8-1.48,1.68-2.08,2.63l-3.39-2.12c0.75-1.2,1.64-2.32,2.63-3.32L13.23,13.43z"/>
<path style="fill:#DCEDC8;" d="M18.84,9.87c-1.05,0.37-2.06,0.86-3,1.46l-2.15-3.37c1.2-0.76,2.48-1.39,3.81-1.86L18.84,9.87z"/>
<g>
	<g>
		<path style="fill:#8BC34A;" d="M22.115,9.103L21.65,5.13C22.386,5.043,23.136,5,23.88,5v4C23.291,9,22.697,9.035,22.115,9.103z"/>
	</g>
</g>
<g>
	<g>
		<path style="fill:#8BC34A;" d="M23.88,43v-4c8.271,0,15-6.729,15-15s-6.729-15-15-15V5c10.477,0,19,8.523,19,19    S34.357,43,23.88,43z"/>
	</g>
</g>
<polygon style="fill:#43A047;" points="26,24 26,15 22,15 22,24 17,24 24,33 31,24 "/>
</svg>